/* XPM */
static char *a3zki_rmvs6[] = {
/* columns rows colors chars-per-pixel */
"50 50 176 2 ",
"   c None",
".  c #160606",
"X  c #1D0202",
"o  c #170D0D",
"O  c #151515",
"+  c #1C1C1C",
"@  c #1C1213",
"#  c #2F0E0E",
"$  c #32090B",
"%  c #2B1515",
"&  c #212323",
"*  c #2E2D2D",
"=  c #332A2A",
"-  c #2D3030",
";  c #343434",
":  c #3F3F3F",
">  c #440202",
",  c #480203",
"<  c #590809",
"1  c #531314",
"2  c #6F0000",
"3  c #680C0D",
"4  c #720000",
"5  c #7F0000",
"6  c #6D1819",
"7  c #651D1D",
"8  c #711011",
"9  c #7D1415",
"0  c #791B1C",
"q  c #422F2F",
"w  c #4B2323",
"e  c #51292A",
"r  c #423939",
"t  c #583C3C",
"y  c #622D2D",
"u  c #653838",
"i  c #3D4040",
"p  c #434445",
"a  c #4A4A4A",
"s  c #535454",
"d  c #575858",
"f  c #5E5959",
"g  c #654747",
"h  c #724444",
"j  c #714D4E",
"k  c #784A4A",
"l  c #775858",
"z  c #646464",
"x  c #686667",
"c  c #656969",
"v  c #6C6D6D",
"b  c #766D6D",
"n  c #727474",
"m  c #7A7373",
"M  c #767979",
"N  c #7B7C7C",
"B  c #800000",
"V  c #8D0203",
"C  c #910000",
"Z  c #930A0A",
"A  c #821717",
"S  c #8C1A1B",
"D  c #8D1415",
"F  c #991617",
"G  c #AD0707",
"H  c #A50C0C",
"J  c #B60001",
"K  c #BD0000",
"L  c #B20909",
"P  c #8C2627",
"I  c #C30303",
"U  c #CC0101",
"Y  c #DA0202",
"T  c #D90B0B",
"R  c #EB0101",
"E  c #E80607",
"W  c #F40202",
"Q  c #FD0101",
"!  c #F00809",
"~  c #FB0C0C",
"^  c #FB1414",
"/  c #FA1817",
"(  c #FC1919",
")  c #F41D1C",
"_  c #C82222",
"`  c #E22121",
"'  c #F92525",
"]  c #F92828",
"[  c #FC302F",
"{  c #F83636",
"}  c #915656",
"|  c #B94040",
" . c #8E6262",
".. c #986565",
"X. c #877171",
"o. c #877B7B",
"O. c #AF6B6B",
"+. c #A77777",
"@. c #C74D4D",
"#. c #CE5757",
"$. c #C55455",
"%. c #F94040",
"&. c #F64A4A",
"*. c #FA4C4C",
"=. c #E85151",
"-. c #E25252",
";. c #F75655",
":. c #F65F5E",
">. c #FC5858",
",. c #C3797A",
"<. c #FA6B6B",
"1. c #F77272",
"2. c #FA7070",
"3. c #F97979",
"4. c #80807F",
"5. c #7E8182",
"6. c #848585",
"7. c #8C8181",
"8. c #8B8C8C",
"9. c #978787",
"0. c #948989",
"q. c #959595",
"w. c #969899",
"e. c #9A9A9A",
"r. c #A4A4A4",
"t. c #ABACAC",
"y. c #ACA5A5",
"u. c #BAAEAE",
"i. c #B4B5B5",
"p. c #BABABA",
"a. c #BCB5B4",
"s. c #C28888",
"d. c #D58687",
"f. c #FA8B8B",
"g. c #F68585",
"h. c #F69594",
"j. c #F89D9D",
"k. c #FA9FA0",
"l. c #DEA8A9",
"z. c #C2BDBD",
"x. c #CDBABA",
"c. c #F8A8A9",
"v. c #F9B0B1",
"b. c #F6BBBB",
"n. c #C5C5C5",
"m. c #C7C7C8",
"M. c #CBCBCB",
"N. c #C6C9C9",
"B. c #D4D4D4",
"V. c #DAD4D4",
"C. c #D6D8D7",
"Z. c #D6D8D8",
"A. c #DDDDDD",
"S. c #E7CDCD",
"D. c #F6CDCD",
"F. c #F9C9C9",
"G. c #E8D7D7",
"H. c #F4D1D1",
"J. c #FAD6D6",
"K. c #F7DAD9",
"L. c #F9D8D9",
"P. c #DFE0E0",
"I. c #E5E5E5",
"U. c #E6E7E8",
"Y. c #E7E8E8",
"T. c #EAEAEA",
"R. c #F6E4E4",
"E. c #F4EBEB",
"W. c #FAEAEA",
"Q. c #F5F5F5",
"!. c #F8F6F6",
"~. c #F7F8F7",
"^. c #F7FBFB",
"/. c #FFFFFF",
"(. c #FCFDFD",
"). c #FCFCFC",
/* pixels */
"                                                                                                    ",
"                                                                                                    ",
"                                                                                                    ",
"                                                                                                    ",
"                                                  ).        ).).                                    ",
"                                              ).M.i.i.i.i.i.i.i.A.).                                ",
"                                        ).Q.T.Y.s O O O o . . . 7.Q.T.).                            ",
"                                      ).).q.* ; e.M.m.N.@.U U U 0 - ; M.).                          ",
"                                      ).w.N N N C.).W.f.[ Q Q Q | N M M i.).                        ",
"                                    Q.z.w ..J.).).^.J.( Q Q Q ] j.^.Q.z v B.).                      ",
"                                ).).i.% I W %.R.Q.Q.H.) W Q ^ b.Q.~.Q.T.8.; U.                      ",
"                                ).8.y J R Q ~ &.D.i.r > > 5 ^ D.^.^.Q.3.P & U.).                    ",
"                              Q.r.n  .:.^ Q Q Q O.5.z c c h F S.^.R.h.' K 6 0.A.                    ",
"                              A.+ w.).E.&.~ W Y 1 N ).).).p.; i.G.c.~ Q Q Y X r.).                  ",
"                              A.+ w.).Q.R.<.U $ y.Q.).    Q.B.i S ( Q Q Q Y X r.).                  ",
"                              A.+ w.).).).+.7 e.U.).        ).i.k B W 1.k.d.@ r.).                  ",
"                              U.z 6.t.t.t.M n ).).          ).).M # =.D.^.Z.+ r.).                  ",
"                              ).).v O O O 8.).).            ).Q.b q G.Q.).B.+ r.).                  ",
"                                ).I.M.B.B.Y.).            ).Q.s 9 T { F.^.B.+ r.).                  ",
"                                                        ).Z.m 9 I Q Q >.,.M 6.B.).                  ",
"                                                      ).A.9., Y Q Q Q Q C & U.).                    ",
"                                                    ).Q.c 1 E ~ Q Q Q Q V * U.                      ",
"                                                  ).Y.s 8.x.b.b.;.Q Q 2 j m.Q.                      ",
"                                                ).B.8.v m.).^.^.v.-.Z j t.).                        ",
"                                              ).U.8.: I.).Q.Q.~.U.t.; m.).                          ",
"                                            ).Q.s x I.Q.~.Q.Q.).6.p A.Q.                            ",
"                                          ).P.z S _ 2.E.^.^.E.X.o.p.).                              ",
"                                        ).C.9.< U Q ^ h.c.l.r.l u.).                                ",
"                                      ).Q.m , R Q Q Q Q W H * B.).                                  ",
"                                    ).Q.s 9 Y Q Q Q Q Q V h B.Q.                                    ",
"                                  ).C.n 6.s.f.g.' Q W C } a.).                                      ",
"                                ).C.q.a B.^.^.Q.1.` L u z.).                                        ",
"                              ).Q.z s Y.Q.Q.Q.Q.E.0.= A.).                                          ",
"                            ).Y.s 8.B.Q.^.Q.).Q.v v M.Q.                                            ",
"                          ).B.o.8 $.v.Q.^.).I.8.n t.).                                              ",
"                        ).U.7.> R Q { D.H.G.t.; m.).                                                ",
"                      ).Q.d 3 R Q Q Q ^ / A p A.).                                                  ",
"                    ).A.f D U Q Q Q Q W 4 l p.).                                                    ",
"                  ).B.q.f #.>.*.~ Q R G g i.).                                                      ",
"                  ).N ; U.~.Q.K.{ ! L e V.).                                                        ",
"                  ).N ; Y.).~.Q.L.j t V.~.                                                          ",
"                  ).N * T.).).Y.M N i.).                                                            ",
"                  ).r.s i.p.p.t.a p.).                                                              ",
"                    ).M.& O O ; A.).                                                                ",
"                      Q.M.m.m.M.Q.                                                                  ",
"                                                                                                    ",
"                                                                                                    ",
"                                                                                                    ",
"                                                                                                    ",
"                                                                                                    "
};
