/* XPM */
static char *a9pwb_2omuu[] = {
/* columns rows colors chars-per-pixel */
"50 50 152 2 ",
"   c #0D0D0E",
".  c #110F0C",
"X  c #15110D",
"o  c #1D160E",
"O  c #0F1010",
"+  c #131313",
"@  c #191613",
"#  c #1C1915",
"$  c #1F1B18",
"%  c #231D15",
"&  c #2A1F13",
"*  c #211E1A",
"=  c #2D2012",
"-  c #2C231B",
";  c #342516",
":  c #312619",
">  c #34291C",
",  c #3B2C1B",
"<  c #2F2820",
"1  c #312920",
"2  c #392E22",
"3  c #3E3123",
"4  c #412F1C",
"5  c #45321E",
"6  c #49351F",
"7  c #443424",
"8  c #4B3620",
"9  c #4E3922",
"0  c #533C24",
"q  c #5A4227",
"w  c #594027",
"e  c #594127",
"r  c #54402A",
"t  c #5A4128",
"y  c #5A4228",
"u  c #5B4228",
"i  c #5C4228",
"p  c #5C4328",
"a  c #5C4329",
"s  c #5D4329",
"d  c #5C4428",
"f  c #5D4428",
"g  c #5D4429",
"h  c #5E4429",
"j  c #5E4529",
"k  c #5F4529",
"l  c #5F4629",
"z  c #5F452A",
"x  c #5E452B",
"c  c #5F462A",
"v  c #5C452C",
"b  c #5D4429",
"n  c #60462A",
"m  c #61462A",
"M  c #61472A",
"N  c #61462B",
"B  c #60472B",
"V  c #61472B",
"C  c #62472A",
"Z  c #62472B",
"A  c #61472A",
"S  c #62482B",
"D  c #63482B",
"F  c #63492B",
"G  c #64492B",
"H  c #63482C",
"J  c #62492D",
"K  c #64482C",
"L  c #64492C",
"P  c #65492C",
"I  c #644A2C",
"U  c #654A2C",
"Y  c #654A2D",
"T  c #664A2C",
"R  c #664B2C",
"E  c #664A2D",
"W  c #664B2D",
"Q  c #674B2D",
"!  c #654B2E",
"~  c #674C2D",
"^  c #654A2C",
"/  c #684B2D",
"(  c #684C2D",
")  c #694D2D",
"_  c #684C2E",
"`  c #694C2E",
"'  c #684D2E",
"]  c #694D2E",
"[  c #684D2F",
"{  c #6A4D2E",
"}  c #6A4D2F",
"|  c #6A4E2E",
" . c #6B4E2E",
".. c #6A4E2F",
"X. c #6B4E2F",
"o. c #6B4F2F",
"O. c #6C4E2F",
"+. c #6C4F2F",
"@. c #6D4F2F",
"#. c #6A4E2E",
"$. c #6D502F",
"%. c #6B4F31",
"&. c #6C4F30",
"*. c #6D4F30",
"=. c #6D4F30",
"-. c #6D5030",
";. c #6E5030",
":. c #6E5130",
">. c #6F5130",
",. c #6E5131",
"<. c #6F5131",
"1. c #6F5231",
"2. c #6E5130",
"3. c #705131",
"4. c #705231",
"5. c #715231",
"6. c #715331",
"7. c #705232",
"8. c #715232",
"9. c #715332",
"0. c #725332",
"q. c #725432",
"w. c #735432",
"e. c #735433",
"r. c #745433",
"t. c #745533",
"y. c #755533",
"u. c #755633",
"i. c #755634",
"p. c #765634",
"a. c #775634",
"s. c #775734",
"d. c #725332",
"f. c #785734",
"g. c #785735",
"h. c #785735",
"j. c #785835",
"k. c #795835",
"l. c #795935",
"z. c #7A5935",
"x. c #7A5936",
"c. c #7B5936",
"v. c #7B5A36",
"b. c #7C5A36",
"n. c #7C5A37",
"m. c #7C5B37",
"M. c #7D5B37",
"N. c #7E5B37",
"B. c #7E5C37",
"V. c #7B5A36",
"C. c #7F5C38",
"Z. c #7E5C38",
/* pixels */
"0 z ;.c.t.D K | w.0.D ; 9 ;.;.K w K | +.| | 0.8 ; | 0.0.p.g.t.0.0.0.p.;.; 9 w.c.t.| K | t.| K 0.8 = ",
"t Z | 0.+.Z | w.b.;.z ; 6 Z Z z t | t.b.t.;.0.8 ; ;.0.K w.c.b.t.0.0.0.K ; 9 0.p.w.| ;.$.K K K 0.8 = ",
"t | p.K Z K +.w.c.w.D ; 6 D K D t K ;.b.t.;.| 6 ; w.;.z p.b.b.t.;.| w.+.; 9 0.;.;.;.w.w.+.D Z 0.8 = ",
"D | 0.| Z t | w.w.c.;.; 9 0.0.| Z G | 0.0.;.K 5 ; | ;.K p.c.w.c.t.K ;.| ; 0 0.K ;.c.w.0.0.H Z ;.8 = ",
"K | 0.0.K 9 +.p.0.c.0.; 0 b.0.+.K K | t.;.| | 6 ; | 0.;.0.0.0.c.p.K +.K ; 0 p.D | b.w.0.0.K D | 6 = ",
"K | 0.0.| 0 K +.0.t.| ; 9 0.p.0.K K +.b.K z ;.8 ; ;.t.0.0.0.0.c.c.| | Z ; 9 0.K *.c.w.;.| K K 0.8 = ",
"+.| | ;.| i D | 0.+.z ; 6 K 0.0.;.K | c.+.K | 6 ; t.g.0.0.0.;.c.c.0.| i ; 9 %.2 1 2 v K z z B | 7 $ ",
"K K | $.K t K | ;.| i ; 6 K ;.t.c.H Z 0.0.;.| 6 ; w.p.0.c.t.K p.c.0.| w ; = * + O + $ * * * * * @ + ",
"K | ;.~ Z i | ;.K | Z ; 6 K ;.w.p.| K | ;.0.0.8 ; t.c.0.p.w.| p.c.0.K 0 ; ; > X     - > : : > 2 %   ",
"+.| K | K i K | +.;.K ; 5 Z ;.0.0.0.$.K $.0.0.8 ; +.p.g.0.0.0.c.c.| K w ; 0 w.0 9 8 ~ ;.K K | b.8 o ",
"0.K i *.| i Z | 0.0.K ; 5 Z | ;.0.;.+.K ;.0.0.8 ; Z 0.b.w.0.0.c.p.~ K z ; 9 0.b.c.0.0.$.G K | b.0 = ",
"0.K i ;.| 0 K 0.c.;.z ; 8 | K K +.~ | ;.0.;.;.6 ; z ;.c.0.0.0.0.0.;.~ w ; 9 0.c.g.0.;.| Z | 0.b.0 = ",
"0.| K K i 8 ;.B.b.+.w ; 6 K ;.+.K K | 0.0.;.K 5 ; z | 0.0.;.| w.t.0.K w ; 9 w.c.c.0.| K K +.w.b.0 = ",
"0.0.;.Z 0 8 ;.C.b.| 0 ; 5 Z ;.;.+.Z D 0.0.;.K 5 ; z | 0.;.| K p.c.0.| z ; 9 w.c.c.0.~ K K +.w.b.0 = ",
"w.0.;.K w 8 | b.b.t.D ; 5 z ;.0.;.Z Z ;.;.+.| 6 ; K ;.0.| | 0.p.g.0.| i ; 9 0.c.g.;.K G ~ ;.w.b.0 = ",
"g.;.Z K i 9 | p.g.t.K ; 5 Z | ;.0.~ K K K ~ ;.8 ; z | +.;.0.p.w.;.+.| Z ; 9 0.c.g.;.i z t.0.w.b.0 = ",
"c.| 0 +.D 8 ;.c.0.0.K ; 9 +.K | 0.~ K | D D ;.8 ; z K K c.c.0.0.;.K +.K ; 9 w.c.p.| t Z b.t.0.p.9 = ",
"C.| 0 | D 0 | t.c.0.Z ; 9 ;.;.;.0.~ | ;.K D | 6 ; z K | c.b.c.;.| ;.| z ; 0 c.b.w.D z K b.t.0.0.8 = ",
"B.0.D z w 0 | w.c.t.K ; 8 | 0.0.+.K K w.| K D 5 ; 0 K 0.c.b.b.| ~ 0.| i ; 0 c.b.+.0 | p.b.0.;.t.9 = ",
"b.w.K Z i 0 | 0.0.0.K ; 5 K c.t.K z K b.| Z Z 5 ; z | +.c.b.b.+.K | | i ; 9 w.b.| 8 0.B.b.;.| b.0 = ",
"b.0.K K z 0 | 0.0.| z ; 6 K 0.;.G i K c.K z K 5 ; | +.K p.b.b.+.K K Z 0 ; 9 w.b.| 8 0.b.b.;.| b.0 = ",
"b.w.K | D w | 0.w.K 0 ; 8 | ;.K i t Z 0.| K z 5 ; | ;.;.0.t.c.+.| g.z 5 ; 9 0.g./ 9 0.c.w.;.0.c.9 = ",
"C.K 7 9 9 0 +.t.w.K 0 ; 9 ;.~ D z i z K $.+.i 4 ; | 0.0.0.0.0.0.w.b.z 5 ; 9 0.K Z z 0.g.t.0.0.0.8 = ",
"C.9     - Z 0.0.K +.K ; 9 0.K K K K K Z D K ;.8 ; ;.0.| t.w.| ;.w.b.Z 8 ; 0 0.7 2 3 H 0.c.0.;.;.7 % ",
"C.9     - K ;.0.;.| z ; 9 0.K Z Z | | i t Z b.0 ; t.t.| p.t.K ;.0.w.| w ; : - + + + - 1 1 > - > $ + ",
"C.9     - ~ +.;.;.$.Z ; 9 ;.t w Z K K D z Z c.9 ; t.g.;.| | ;.0.0.0.0.K ; & %       % - % - - - @   ",
"C.9     : ;.| K K t.0.; 0 t.t w Z w z ;.Z Z t.9 ; ;.t.0.K | t.;.+.0.;.D ; 5 t > : , | p.;.0.t.t.5 X ",
"C.K 7 7 0 0.| K K t.0.; 0 t.Z z z 9 0 t.D Z c.0 ; ~ ;.| 0.t.t.K D ;.;.D ; , 9 z | 0.c.c.0.0.w.b.0 = ",
"b.w.K K | 0.| K K t.0.; 0 w.| w 5 w K 0.Z z 0.9 ; D K K c.c.0.z z 0.0.K ; , 8 Z | 0.c.c.0.0.w.b.0 = ",
"b.w.K K | 0.| K K t.0.; 0 c.0.w , w $.b.Z w | 6 ; ~ K z p.c.+.z z w.w.K ; 5 w z K 0.c.c.$.0.t.c.9 = ",
"p.;.K | ;.0.| K K t.0.; 9 0.p.z , t | p.K z | 6 ; ;.;.Z ;.;.| K D Z | K ; 5 Z t D 0.c.p.K t.c.0.8 = ",
"0.| K ;.0.;.| K K t.0.; 9 ;.| Z 0 t D ;.D z ;.8 ; w.0.K K | 0.| Z 0 K K ; 5 i | K Z | ;.p.c.c.0.8 = ",
"0.$.| $.;.0.| K ;.0.~ ; 8 ~ K | +.t t +.Z z K 5 ; | ;.K K | 0.| G w | | ; 5 z ;.| Z z | b.b.c.0.8 = ",
"0.0.;.~ | 0.| ~ 0.0.K ; 6 K K | ;.K D Z w 0 | 6 ; | +.K K | p.p.*.0 K | ; 5 z 0.0.| t Z b.c.p.p.9 = ",
"0.0.;.~ | ;.;.+.| w.+.; 6 K K | 0.0.| t 8 9 t.9 ; ;.0.K K ;.b.b.t.t i 0 ; 6 D 0.0.| z Z t.0.w.b.0 = ",
"0.0.;.K K | p.p.K w.;.; 9 +.~ | 0.0.| 0 8 0 0.8 ; | 0.0.;.;.w.w.0.+.z 9 ; 6 K ~ ;.p.| | 0.;.0.b.0 = ",
"+.;.0.;.| Z 0.t.K $.K ; 8 | ;.;.0.p.0.z 8 8 ;.8 ; K t.b.w.;.$.0.w.;.K 0 ; 5 z +.0.0.0.w.b.;.;.b.0 = ",
"| | | c.;.0 | ;.| | Z ; 6 K ;.0.0.0.+.Z 0 0 | 6 ; w.B.b.w.;.| ;.;.| | Z ; 5 z ;.0.0.0.0.p.p.g.b.0 = ",
"0.+.K 0.+.z K | ;.| w ; 8 | ;.+.~ ;.+.D D D K 5 ; t.B.b.0.0.0.| | ;.0.K ; 6 K ;.;.0.0.0.0.c.b.B.0 = ",
"0.;.+.| ~ K D K 0.Z 0 ; 9 +.D Z z +.;.+.| ~ K 5 ; 0.b.b.| ;.c.w.| z 0.;.; 8 | | | +.0.0.;.g.b.B.0 = ",
"0.| K 0.;.Z Z K p.| 0 ; 8 | K K K ;.;.K +.;.| 6 ; *.p.p.| | g.w.+.z 0.0.; 9 ;.r 9 7 K ;.| p.B.B.9 % ",
"0.| K c.t.Z D D z D z ; 6 K 0.| i 0.t.+.| | 0.8 ; t.t.| 0.0.| | +.w.t.| ; > 2 # + + - 2 3 7 7 7 - + ",
"0.;.;.0.0.+.i 0 w K G ; 5 z | K t t.c.0.| | c.9 ; t.p.;.c.t.K K | b.p.K ; % @       @ # # # # $ +   ",
"0.0.0.K K ;.w 0 D ;.| ; 8 | | K i | 0.t.| | b.0 ; t.c.0.0.0.;.~ | b.b.0.; 9 | - % % 0 D K | %.0., . ",
"0.0.;.D | c.z 0 K t.0.; 0 t.K D K Z | b.+.| b.0 ; t.c.0.0.;.| | ;.b.B.0.; 0 b.+.| | ;.0.0.c.B.C.0 & ",
"c.0.| K | +.D D +.| z ; 0 w.D D K D | b.+.| b.0 ; t.b.c.+.| +.0.t.b.b.0.; 0 t.0.0.0.0.0.0.c.b.C.0 = ",
"b.p.;.+.K z | ;.w.;.Z ; 8 | Z i w K 0.b.;.| b.0 ; t.b.c.| | w.c.c.w.c.0.; 9 w.+.;.0.0.t.g.w.0.b.0 = ",
"b.t.| | | | 0.p.b.c.| ; 0 c.| G D K +.b.t.0.b.0 ; t.c.0.K +.b.b.c.0.c.0.; 0 c.| | 0.c.c.p.;.;.b.0 = ",
"b.c.w.0.w.p.p.g.b.B.0.; 0 b.| | 0.;.;.0.;.;.b.0 ; t.g.0.+.0.b.b.c.0.c.0.; 0 B.b.g.0.c.b.b.c.c.b.0 = ",
"b.b.b.w.t.b.c.g.t.c.0.; 0 b.p.c.b.c.c.p.p.p.b.0 ; w.b.c.0.t.b.b.c.0.c.0.; 0 B.b.c.c.b.b.b.b.b.B.0 = "
};