/* XPM */
static char *ajzh6_0kgzm[] = {
/* columns rows colors chars-per-pixel */
"50 50 173 2 ",
"   c None",
".  c #1D1C1C",
"X  c #1F1E1E",
"o  c #231E1D",
"O  c #201E1E",
"+  c #201F1F",
"@  c #221F1E",
"#  c #231F1E",
"$  c #221F1F",
"%  c #3B2419",
"&  c #1B2526",
"*  c #1E3638",
"=  c #193B3E",
"-  c #1D3B3D",
";  c #212020",
":  c #222020",
">  c #232020",
",  c #222121",
"<  c #222222",
"1  c #232222",
"2  c #222223",
"3  c #222323",
"4  c #262220",
"5  c #242323",
"6  c #252424",
"7  c #262525",
"8  c #212728",
"9  c #202C2C",
"0  c #202D2E",
"q  c #292828",
"w  c #2B2929",
"e  c #2B2A2A",
"r  c #2C2C2C",
"t  c #383737",
"y  c #612508",
"u  c #732602",
"i  c #792A05",
"p  c #1C4042",
"a  c #1C4447",
"s  c #155559",
"d  c #176166",
"f  c #16676D",
"g  c #14767D",
"h  c #4C4747",
"j  c #494848",
"k  c #4B4848",
"l  c #4A4A4A",
"z  c #4B4A4A",
"x  c #4C4B4B",
"c  c #504F4F",
"v  c #515050",
"b  c #515151",
"n  c #535353",
"m  c #575656",
"M  c #5C5B5B",
"N  c #616060",
"B  c #676666",
"V  c #6F6F6F",
"C  c #777777",
"Z  c #787777",
"A  c #797877",
"S  c #7A7979",
"D  c #7E7D7D",
"F  c #7F7F7F",
"G  c #11858E",
"H  c #0CA0AB",
"J  c #09B0BB",
"K  c #0AB0BB",
"L  c #0BB1BB",
"P  c #0CB1BB",
"I  c #12B2BC",
"U  c #17B2BC",
"Y  c #1DB3BD",
"T  c #2AB5BE",
"R  c #2BB5BE",
"E  c #2CB6BE",
"W  c #2CB6BF",
"Q  c #33B7BF",
"!  c #38B7BF",
"~  c #08BCC9",
"^  c #43B9C0",
"/  c #44B9C1",
"(  c #45B9C1",
")  c #4ABAC1",
"_  c #4BBAC1",
"`  c #57BCC3",
"'  c #5BBDC3",
"]  c #60BDC3",
"[  c #67BFC4",
"{  c #6CBFC5",
"}  c #6EBFC5",
"|  c #03D8E7",
" . c #72C0C5",
".. c #73C0C5",
"X. c #828282",
"o. c #888888",
"O. c #898989",
"+. c #939393",
"@. c #999999",
"#. c #9A9A9A",
"$. c #9B9B9B",
"%. c #9C9B9B",
"&. c #9C9C9C",
"*. c #9D9D9D",
"=. c #9F9F9F",
"-. c #A4A4A4",
";. c #A5A4A4",
":. c #A5A5A5",
">. c #A6A6A6",
",. c #A8A8A8",
"<. c #A9A9A9",
"1. c #AAAAAA",
"2. c #ACACAC",
"3. c #ADADAD",
"4. c #AEAEAE",
"5. c #AFAFAF",
"6. c #B1B1B1",
"7. c #B2B2B2",
"8. c #B3B3B3",
"9. c #B6B6B6",
"0. c #B7B7B7",
"q. c #B9B9B9",
"w. c #BCBCBC",
"e. c #83C3C7",
"r. c #8CC4C8",
"t. c #8EC4C8",
"y. c #91C5C8",
"u. c #9CC6C9",
"i. c #A6C8CA",
"p. c #A7C8CA",
"a. c #A9C8CA",
"s. c #ADC9CB",
"d. c #B2CACB",
"f. c #B3CACB",
"g. c #B8CBCC",
"h. c #BCCBCC",
"j. c #BECCCC",
"k. c #C0C0C0",
"l. c #C1C1C1",
"z. c #C2C2C2",
"x. c #C3C3C3",
"c. c #C4C4C4",
"v. c #C5C5C5",
"b. c #C7C5C5",
"n. c #C6C6C6",
"m. c #C7C7C7",
"M. c #C2CCCD",
"N. c #C3CCCD",
"B. c #C0CECF",
"V. c #C7CECE",
"C. c #C8C8C8",
"Z. c #CACACA",
"A. c #C8CDCD",
"S. c #C9CDCE",
"D. c #CACDCE",
"F. c #CBCECE",
"G. c #CCCCCC",
"H. c #CDCDCD",
"J. c #CCCECE",
"K. c #CDCECE",
"L. c #CECECE",
"P. c #CFCECE",
"I. c #CFCFCF",
"U. c #D0CECE",
"Y. c #D1CECE",
"T. c #D3CFCE",
"R. c #CCCFD0",
"E. c #CDD0D0",
"W. c #D0D0D0",
"Q. c #D1D1D0",
"!. c #D0D1D1",
"~. c #D1D1D1",
"^. c #D2D2D2",
/* pixels */
"                                                                                                    ",
"                                                                                                    ",
"                                                                                                    ",
"                                            W.I.I.I.I.I.I.W.                                        ",
"                                            I.I.I.I.I.I.I.I.                                        ",
"                                      I.I.Z.Z.Z.Z.Z.Z.Z.Z.I.I.1.#.                                  ",
"                                  W.W.W.D b b b b b b b b D I.c.q.=.                                ",
"                                  W.z.;.x . . . O . . . . x ;.z.c.1.;.                              ",
"                                I.W.=.r 5 , , , , , , , , 5 r =.W.I.4.#.                            ",
"                                Z.D c , , , , , , , , , O O , b D Z.4.#.=.                          ",
"                                c.j & p 0 , , , , , , , - * , . k c.4.#.#.                          ",
"                                c.h s | d O , , , , , 0 ~ H , O k c.4.#.#.                          ",
"                                c.k = G a O , , , , , 8 g f , . k c.4.#.#.                          ",
"                                Z.m e O , , , , , , , , O O , e m Z.4.#.#.                          ",
"                                I.w.o., , , , , , , , , , , , o.w.I.4.#.#.                          ",
"                                W.W.6.B t O , , , , , , , t B 6.W.I.4.#.#.                          ",
"                                  I.I.I.N 7 e 7 , , 7 e 7 N I.I.I.I.4.#.#.                          ",
"                                      I.6.;.;.M O O M ;.;.6.I.I.c.1.=.#.#.                          ",
"                                      W.W.W.W.V . . V W.W.W.I.c.0.#.#.#.#.                          ",
"                                        I.I.W.V , , V W.I.I.I.1.#.#.#.#.#.                          ",
"                                            I.4.+.+.4.I.I.z.4.1.    #.#.#.                          ",
"                                            I.W.W.W.W.I.I.w.#.        =.#.                          ",
"                                        I.I.I.I.U.U.I.I.I.w.#.          #.                          ",
"                                      W.I.I.I.r.` ` r.I.I.c.0.1.        =.#.                        ",
"                                      I.I.I.I.[ I I [ U.I.I.I.1.#.      #.                          ",
"                                      I.I.I.I.M.g.g.M.I.I.I.I.1.#.                                  ",
"                                      I.I.I.I.u.....u.U.I.I.I.1.#.                                  ",
"                                      I.I.F.M.' J J ' M.F.I.I.1.#.                                  ",
"                                      I.U.s.R { a.a.{ R s.U.I.1.#.                                  ",
"                                      I.U.f.) y.U.U.y.) f.I.I.1.#.                                  ",
"                                      I.I.I.F.F.F.I.F.V.I.I.I.1.#.                                  ",
"                                      I.U.f./ ! ) j.t./ f.U.I.1.#.                                  ",
"                                      I.U.i.J U ^ j...J i.U.I.6.;.                                  ",
"                                      I.U.i.P } F.U...P i.U.I.I.z.=.                                ",
"                                      I.U.i.J ..M.] R J i.U.I.I.z.=.                                ",
"                                      I.U.s.R e.j.Q Y R s.U.I.I.z.;.                                ",
"                                      I.W.E.M.V.I.j.j.j.I.W.W.I.I.Z.4.=.                            ",
"                                        o.Z Z %.      c.X.C S 1.    ;.#.                            ",
"                                        O O O           , . ,       =.=.                            ",
"                                        5 , ,           7 , ,                                       ",
"                                          , ,             , ,                                       ",
"                                            5               ,                                       ",
"                                            y               ,                                       ",
"                                            i               %                                       ",
"                                                            u                                       ",
"                                                                                                    ",
"                                                                                                    ",
"                                                                                                    ",
"                                                                                                    ",
"                                                                                                    "
};
