/* XPM */
static char *ans2u_jnoe0[] = {
/* columns rows colors chars-per-pixel */
"50 50 172 2 ",
"   c None",
".  c #1D1C1C",
"X  c #1F1E1E",
"o  c #231E1D",
"O  c #201E1E",
"+  c #201F1F",
"@  c #221F1E",
"#  c #231F1E",
"$  c #221F1F",
"%  c #38251B",
"&  c #1C2526",
"*  c #1E3638",
"=  c #1A3B3E",
"-  c #1E3B3D",
";  c #212020",
":  c #222020",
">  c #232020",
",  c #222121",
"<  c #222122",
"1  c #222222",
"2  c #232222",
"3  c #222223",
"4  c #222323",
"5  c #252220",
"6  c #242323",
"7  c #252424",
"8  c #262525",
"9  c #212728",
"0  c #202C2C",
"q  c #202D2E",
"w  c #292828",
"e  c #2B2929",
"r  c #2B2A2A",
"t  c #2C2C2C",
"y  c #383737",
"u  c #59280E",
"i  c #692B0A",
"p  c #6F2F0D",
"a  c #1D3F42",
"s  c #1C4347",
"d  c #175458",
"f  c #176066",
"g  c #16656D",
"h  c #14747D",
"j  c #4C4747",
"k  c #494848",
"l  c #4B4848",
"z  c #4A4A4A",
"x  c #4B4A4A",
"c  c #4C4B4B",
"v  c #504F4F",
"b  c #515050",
"n  c #515151",
"m  c #535353",
"M  c #575656",
"N  c #5C5B5B",
"B  c #616060",
"V  c #676666",
"C  c #6F6F6F",
"Z  c #777777",
"A  c #797877",
"S  c #7A7979",
"D  c #7E7D7D",
"F  c #7F7F7F",
"G  c #11838E",
"H  c #0D9EAB",
"J  c #30ADB9",
"K  c #31ADB9",
"L  c #31AEB9",
"P  c #32AEB9",
"I  c #33AEB9",
"U  c #39AFBA",
"Y  c #3BB0BA",
"T  c #40B1BB",
"R  c #4AB3BC",
"E  c #4BB3BC",
"W  c #4CB3BD",
"Q  c #4FB4BD",
"!  c #52B4BD",
"~  c #56B5BE",
"^  c #5FB7BF",
"/  c #60B7BF",
"(  c #08B9C9",
")  c #65B8C0",
"_  c #70BAC1",
"`  c #73BBC2",
"'  c #76BCC2",
"]  c #7CBDC3",
"[  c #04D4E7",
"{  c #828282",
"}  c #888888",
"|  c #898989",
" . c #939393",
".. c #999999",
"X. c #9A9A9A",
"o. c #9B9B9B",
"O. c #9C9B9B",
"+. c #9C9C9C",
"@. c #9D9D9D",
"#. c #9F9F9F",
"$. c #A4A4A4",
"%. c #A5A4A4",
"&. c #A5A5A5",
"*. c #A6A6A6",
"=. c #A8A8A8",
"-. c #A9A9A9",
";. c #AAAAAA",
":. c #ACACAC",
">. c #ADADAD",
",. c #AEAEAE",
"<. c #AFAFAF",
"1. c #B1B1B1",
"2. c #B2B2B2",
"3. c #B3B3B3",
"4. c #B6B6B6",
"5. c #B7B7B7",
"6. c #B9B9B9",
"7. c #BCBCBC",
"8. c #80BEC3",
"9. c #81BEC4",
"0. c #84BFC4",
"q. c #85BFC4",
"w. c #91C1C6",
"e. c #9AC3C7",
"r. c #9BC3C7",
"t. c #9EC4C7",
"y. c #A6C6C9",
"u. c #ADC7CA",
"i. c #AEC7CA",
"p. c #B0C8CA",
"a. c #B3C8CA",
"s. c #B4C9CA",
"d. c #B7C9CB",
"f. c #B8CACB",
"g. c #BDCACC",
"h. c #BFCBCC",
"j. c #C0C0C0",
"k. c #C1C1C1",
"l. c #C2C2C2",
"z. c #C3C3C3",
"x. c #C4C4C4",
"c. c #C5C5C5",
"v. c #C6C5C5",
"b. c #C6C6C6",
"n. c #C7C7C7",
"m. c #C1CBCC",
"M. c #C2CBCC",
"N. c #C3CECF",
"B. c #C5CCCD",
"V. c #C6CCCD",
"C. c #C8C8C8",
"Z. c #CACACA",
"A. c #C9CDCD",
"S. c #CACDCD",
"D. c #CBCDCE",
"F. c #C9CECE",
"G. c #CCCCCC",
"H. c #CDCDCD",
"J. c #CCCECE",
"K. c #CDCECE",
"L. c #CECECE",
"P. c #CFCECE",
"I. c #CFCFCF",
"U. c #D0CECE",
"Y. c #D2CFCF",
"T. c #CDCFD0",
"R. c #CED0D0",
"E. c #D0D0D0",
"W. c #D1D1D0",
"Q. c #D0D1D1",
"!. c #D1D1D1",
"~. c #D2D2D2",
/* pixels */
"                                                                                                    ",
"                                                                                                    ",
"                                                                                                    ",
"                                        E.I.I.I.I.I.I.E.                                            ",
"                                        I.I.I.I.I.I.I.I.                                            ",
"                                  X.=.I.I.Z.Z.Z.Z.Z.Z.Z.Z.I.I.                                      ",
"                                @.6.b.I.D b b b b m b b b D E.E.E.                                  ",
"                              &.=.b.z.&.c . . . O . . . . c &.l.E.                                  ",
"                            X.,.I.E.@.t 6 < < < < < < < < 6 t @.E.I.                                ",
"                          @.X.,.Z.F v < O O < < < < < < < < < v D Z.                                ",
"                          X.X.,.b.k . < * - < < < < < < < 0 a & k b.                                ",
"                          X.X.,.b.k . < H ( q < < < < < O f [ d j b.                                ",
"                          X.X.,.b.k . < g h 9 < < < < < O s G = k b.                                ",
"                          X.X.,.Z.M e < O O < < < < < < < < O e M Z.                                ",
"                          X.X.,.I.7.} < < < < < < < < < < < < } 7.I.                                ",
"                          X.X.,.I.E.1.V y O < < < < < < O y V 1.E.E.                                ",
"                          X.X.,.I.I.I.I.B 8 e 8 < < 8 e 8 B I.I.I.                                  ",
"                          X.X.@.=.b.I.I.1.&.&.N O O N &.&.1.I.                                      ",
"                          X.X.X.X.4.b.I.E.E.E.C . . C E.E.E.E.                                      ",
"                          X.X.X.X.X.=.I.I.I.E.C O O C E.I.I.                                        ",
"                          X.X.X.    =.,.l.I.I.,. . .,.I.                                            ",
"                          X.@.        X.7.I.I.E.E.E.E.I.                                            ",
"                          X.          X.7.I.I.I.U.U.I.I.I.I.                                        ",
"                        X.@.        =.4.b.I.I.r._ _ r.I.I.I.E.                                      ",
"                          X.      X.=.I.I.I.I.] U U ] I.I.I.I.                                      ",
"                                  X.=.I.I.I.I.V.g.g.V.I.I.I.I.                                      ",
"                                  X.=.I.I.I.I.y.0.0.y.I.I.I.I.                                      ",
"                                  X.=.I.I.I.V._ J J _ V.I.I.I.                                      ",
"                                  X.=.I.U.d.Q 8.p.a.8.Q a.U.I.                                      ",
"                                  X.=.I.I.f.) t.U.U.t.) f.I.I.                                      ",
"                                  X.=.I.I.I.S.I.I.S.S.S.I.I.I.                                      ",
"                                  X.=.I.I.d.^ r.M.) ~ / d.I.I.                                      ",
"                                  &.1.I.U.u.J 0.M.^ Y J u.U.I.                                      ",
"                                @.l.I.I.U.u.J 0.U.S.9.J u.U.I.                                      ",
"                                @.l.I.I.U.u.J R ' V.0.J u.U.I.                                      ",
"                                &.l.I.I.I.a.Q T ! g.w.R a.U.I.                                      ",
"                            @.,.Z.I.I.E.E.T.M.g.M.I.S.N.R.U.I.                                      ",
"                            X.&.    =.S Z { b.      O.A Z }                                         ",
"                            @.@.      < . <           O O O                                         ",
"                                      < < 8           < < 6                                         ",
"                                      < <             < <                                           ",
"                                      <               6                                             ",
"                                      <               u                                             ",
"                                      %               p                                             ",
"                                      i                                                             ",
"                                                                                                    ",
"                                                                                                    ",
"                                                                                                    ",
"                                                                                                    ",
"                                                                                                    "
};
