/* XPM */
static char *a0fnc_yqarx[] = {
/* columns rows colors chars-per-pixel */
"50 50 230 2 ",
"   c None",
".  c #1A1815",
"X  c #393727",
"o  c #3A3931",
"O  c #5E291F",
"+  c #62251F",
"@  c #5C2A28",
"#  c #5E3C33",
"$  c #5D332D",
"%  c #772927",
"&  c #6D362A",
"*  c #76332C",
"=  c #693836",
"-  c #74302E",
";  c #544C38",
":  c #565634",
">  c #4A4B30",
",  c #674B37",
"<  c #685635",
"1  c #765837",
"2  c #78603A",
"3  c #6C783A",
"4  c #6D6F3C",
"5  c #5E5346",
"6  c #555755",
"7  c #6F4B48",
"8  c #7E5A55",
"9  c #715345",
"0  c #5D615E",
"q  c #786847",
"w  c #7E7449",
"e  c #686758",
"r  c #766A58",
"t  c #636140",
"y  c #776E61",
"u  c #6D706C",
"i  c #7E7972",
"p  c #737169",
"a  c #9E1B1F",
"s  c #BB191F",
"d  c #A51B1E",
"f  c #951E21",
"g  c #A71C21",
"h  c #B51C22",
"j  c #862825",
"k  c #972927",
"l  c #99322E",
"z  c #8C3831",
"x  c #983331",
"c  c #8C362F",
"v  c #A22B2A",
"b  c #AB2224",
"n  c #B52224",
"m  c #B62327",
"M  c #A43733",
"N  c #B73634",
"B  c #A52C30",
"V  c #D21A1F",
"C  c #C31C21",
"Z  c #CC1D22",
"A  c #D21C22",
"S  c #DB1E21",
"D  c #EC1E24",
"F  c #E51E23",
"G  c #FD1F25",
"H  c #F71E26",
"J  c #C22D2D",
"K  c #C92427",
"L  c #D22A2B",
"P  c #D92428",
"I  c #CC3032",
"U  c #EE2026",
"Y  c #E72329",
"T  c #FD2026",
"R  c #F52229",
"E  c #FD2129",
"W  c #F42026",
"Q  c #904737",
"!  c #AC483D",
"~  c #85663B",
"^  c #966F3D",
"/  c #C63942",
"(  c #8B4A4E",
")  c #BA5B56",
"_  c #A9504E",
"`  c #85684C",
"'  c #8C7848",
"]  c #977646",
"[  c #866A5A",
"{  c #8E7159",
"}  c #A47C45",
"|  c #AC6C5C",
" . c #887766",
".. c #957967",
"X. c #8C7D76",
"o. c #927E7B",
"O. c #8A6260",
"+. c #A87B6A",
"@. c #B87469",
"#. c #C3554E",
"$. c #C27C73",
"%. c #7E8F3F",
"&. c #788A48",
"*. c #7E9353",
"=. c #7B924D",
"-. c #7E847A",
";. c #829C47",
":. c #86895C",
">. c #968856",
",. c #9A8F56",
"<. c #B88A4D",
"1. c #A58753",
"2. c #A3955B",
"3. c #A79659",
"4. c #B18D52",
"5. c #87A74D",
"6. c #8BAC50",
"7. c #ADA25C",
"8. c #B4A55F",
"9. c #958967",
"0. c #8A837D",
"q. c #8E8877",
"w. c #978B79",
"e. c #939070",
"r. c #A59D62",
"t. c #A9996A",
"y. c #B39D61",
"u. c #AA8877",
"i. c #B98977",
"p. c #A59879",
"a. c #B38B70",
"s. c #BCAD69",
"d. c #B7A863",
"f. c #BEB26A",
"g. c #B8AD78",
"h. c #C49C5D",
"j. c #C48F4F",
"k. c #D2977D",
"l. c #C2AA63",
"z. c #C4B46A",
"x. c #C9BA6C",
"c. c #C5BA6D",
"v. c #CABA73",
"b. c #D8B368",
"n. c #CDC377",
"m. c #D7C978",
"M. c #DED07A",
"N. c #E3D57B",
"B. c #EAD97C",
"V. c #878886",
"C. c #968A86",
"Z. c #9B9586",
"A. c #8D999B",
"S. c #A89785",
"D. c #B69687",
"F. c #AB9A99",
"G. c #BD8D82",
"H. c #99A199",
"J. c #A8A388",
"K. c #B4A689",
"L. c #A7A393",
"P. c #B7A898",
"I. c #B5B199",
"U. c #96A4A7",
"Y. c #8EA1A6",
"T. c #ABA7A3",
"R. c #B7B5A9",
"E. c #A9B4B3",
"W. c #B7B7B5",
"Q. c #B3AFA4",
"!. c #C59987",
"~. c #D99D84",
"^. c #C18A83",
"/. c #C8A08C",
"(. c #CDAA9B",
"). c #C8A497",
"_. c #D3AC9C",
"`. c #D2AC96",
"'. c #C9B69E",
"]. c #CEB196",
"[. c #F2A78C",
"{. c #C5AAAD",
"}. c #C9BCA6",
"|. c #D6B7A7",
" X c #C6B6B4",
".X c #E1BFAC",
"XX c #EADD81",
"oX c #F2DA82",
"OX c #F3E585",
"+X c #FCED8B",
"@X c #F7E788",
"#X c #FFF08B",
"$X c #EFE182",
"%X c #C8C4BA",
"&X c #D9C9B9",
"*X c #D8C8B0",
"=X c #FDD5BB",
"-X c #ECCAB3",
";X c #D4C397",
":X c #A8BCC0",
">X c #C6BBC2",
",X c #BBCBD2",
"<X c #BDCBCE",
"1X c #C5C7C7",
"2X c #D4CCC6",
"3X c #DAD2C7",
"4X c #C8D5D8",
"5X c #D7D7D7",
"6X c #E7D9C9",
"7X c #F9DEC6",
"8X c #E4DCD2",
"9X c #E4DDD7",
"0X c #EBE5D9",
"qX c #FCEFDA",
"wX c #F9EAD5",
"eX c #FEF2DB",
"rX c #F9E9CE",
"tX c #DBDCE1",
"yX c #DAE2E4",
"uX c #E3E9EA",
"iX c #E8E8E6",
"pX c #F3EDE5",
"aX c #F4F3EA",
"sX c #FBF2E7",
"dX c #ECF2F4",
"fX c #F3F5F4",
"gX c #FBF9F5",
"hX c #FFFFFF",
"jX c #F3F8F9",
"kX c #EBEEF1",
/* pixels */
"                                                                                                    ",
"                                                                                                    ",
"                            I P P P J M                                                             ",
"                          L E E G E G R Y L M                                                       ",
"                        L T E T T T T G E G W L x                                                   ",
"                      J T T G G T T T T G G G G U J                                                 ",
"                    N R T T T G H U H G G G G G G E L {                                             ",
"                    Y E T H U S C h C D H T G T T T H $.2X        >.1.,.                            ",
"                  N E R P n a a s s g g F G G G T G H @.gX2Xy q >.2.n.XXM.d.                        ",
"                  J P v @ $ m g C A Z s Z H G G G G L (.hXhXT.>.x.d.2.r.g.n.s.                      ",
"              p...v & . . k A h g Z A A V H G G G D | aXhXhX5X>.2.f.M.8.>.2.r.2.                    ",
"            P.pX0X_.... @ K Z A h h A A A U T T D ! 3XhXhXhX5X:.r.' 2.B.N.2.d.w q                   ",
"            0XhXhXgX|.5 j Z Z Z A Z A A A H G P _ &XhXhXhXhX%Xy.3.B.z.r.c.d.y.' ,                   ",
"          L.fXhXhXhX9X .  l C A A A A A A S N @.0XhXhXhXhXuXK.B.s.@XB.w 7.@Xy.~ ~                   ",
"            iXhXhXhX5X    9 z b n b b k ! i.&XgXhXhXhXhXfXI.N.+Xx.N.m.8.>.>.] ~ }                   ",
"            E.kXhXuXH.    u.!.+.| | +.!.0XgXhXhXhXhXhXjXR.m.+X+XM.c.z.x.y.2 j.^ ]                   ",
"              Y.E.        D._._._._..XpXhXhXhXhXhXhXjXE.r.+X+X+XOX2.x.x.l.1 ] ] 2                   ",
"                          /._.|.-X6XsXhXhXhXhXhXhXuXQ.z.d.+X#X#X@X3.N.s.h.~ ^ ~ ;                   ",
"                          3XsXgXgXhXhXhXhXhXfX5XQ.p.v.OXd.@X+X+X+Xz.n.l.4.} ] }                     ",
"                          -.W.5XuXuXyX4X1XH.J.[ >.l.w f.7.OX+X+X+Xs.2.l.} <.~ `                     ",
"                          ; >.r e q. .9.d.>.s.t.g.v.9.t.2.$X+X+X#Xs.4.<.} 1.;                       ",
"                          3.,.> o 0 e }.t.;X'.p.3X:.r u t B.+X+X#Xz.4.] <.~ * l c                   ",
"                          $Xv.[ 5 X X I.7XrXqXZ.6 o X X q N.#X+X#Xz.1 2 ' 1 g Z C n c               ",
"                          OXm.w.*.;.4 *XeXqXqX*Xq 3 %.&.Z.m.#X+X#Xs.1 ` , & d Z Z A m               ",
"                          OXv. .*.6.&.}.eXeXqXsXp.5.6.=.Z.m.#X+X+Xd.` a...j V V Z Z k               ",
"                          XXt.P.*.6.&.*XeXeXeXqXZ.;.6.=.L.n.@X+X+X3.a.~.+.k V V A m =               ",
"                          z.K.0X:.=.9.wXeXeXeXsX X&.5.*.%Xs.c.+XoX] { k.[ f Z V K *                 ",
"                          1.S.7X`.t.*X3X&X&X&X8X0Xe.' ].6X>.7.+Xb.] a. .- d a C k                   ",
"                          1.{ '.=X7X6Xi.k.k.~./.-X=X-X=X6Xr 8.@Xh.` 8 % & c % *                     ",
"                          ] <.` S.&X6X!.[.[.[.~.|.=X=X7X6Xw.v.v.} j h Z z                           ",
"                            1.q o 7 O.[ +.~.[.i.P.|.).P.C.0.9.9 Q C A Z l                           ",
"                            q     * j j % = = $ - B m m n ( q.( g A A A l                           ",
"                                      # k % + O & K F S K M ..7 j k b m l                           ",
"                                    I.K., 3 : 4 3 , | i.(.6XaX X      = #                           ",
"                                  L.aXiXe : : : : w.gXhXhXhXfX1X                                    ",
"                                  H.4XyXi w.R.r : R.kXtX>XF.V.               ...9...                ",
"                                    7 ( r Q.W.o.* _ _ / L Y l         9.}.8X0XpXpX0X3XK.            ",
"                                  M P L (.gXiX) D D Z T E E K v     J.0XhXhXhXhXhXhXhXgX3XS.        ",
"                              M L R T ) pXhXtX/ G Z Z Y Y U F K J p.aXhXhXhXhXhXhXhXhXhXhXpXF.      ",
"                            N U E T P ).hXhX2XL U ! i.!.!.$.#.v _ 0XhXhXhXhXhXhXhXhXhXhXhXhXiXC.    ",
"                          J E E E T I 8XhXhX XL #.8XgXjXgXgXpXS.'.uX3XgXhXhXhXhXhXhXhXhXhXhXhXW.    ",
"                      J.u.N L Y D D ) fXhXhX{.L G. XF.Z.F. X9XT.%X%XaXhXhXhXhXhXhXhXhXhXhXhXhX5X    ",
"                      0XgX9X&X(.^.@.D.hXhXhXR.c ..I.X.5 ; 5 o.p L.aXhXhXhXhXhXhXhXhXhXhXhXhXhX9X    ",
"                    %XhXhXhXhXhXhXgXgXhXhXhXiXZ.8X2X3X X . .%Xw.8XhXhXhXhXhXhXhXhXhXhXhXhXhXhX5X    ",
"                    E.yXdXhXhXhXhXhXhXhXhXhXkXT.1XtX X ...X.T.X.1XfXhXhXhXhXhXhXhXhXhXhXhXhXhX1X    ",
"                        A.U.:X<X4XyXuXdXjXjXfX5X1XC.u.!.i. .G.u.P.5XgXhXhXhXhXhXhXhXhXhXhXhXgXU.    ",
"                                    u  .V.Y.Y.U.A.q._.(.(./.(.).D.8XhXhXhXhXhXhXhXhXhXhXhXhX1X      ",
"                                      <           y D.(.(.(.(._.(.|.9XhXhXhXhXhXhXhXhXhXkXW.u       ",
"                                                    p 0.X.0.V.C.C.C.Z.E.<X,X,X4X4X4X1XW.C.0         ",
"                                                                                                    "
};
