/* XPM */
static char *axp23_paww6[] = {
/* columns rows colors chars-per-pixel */
"50 50 230 2 ",
"   c None",
".  c #1A1815",
"X  c #393727",
"o  c #3A3931",
"O  c #5E291F",
"+  c #62251F",
"@  c #5C2A28",
"#  c #5E3C33",
"$  c #5D332D",
"%  c #772927",
"&  c #6D362A",
"*  c #76332C",
"=  c #693836",
"-  c #74302E",
";  c #544C38",
":  c #565634",
">  c #4A4B30",
",  c #674B37",
"<  c #685635",
"1  c #765837",
"2  c #78603A",
"3  c #6C783A",
"4  c #6D6F3C",
"5  c #5E5346",
"6  c #555755",
"7  c #6F4B48",
"8  c #7E5A55",
"9  c #715345",
"0  c #5D615E",
"q  c #786847",
"w  c #7E7449",
"e  c #686758",
"r  c #766A58",
"t  c #636140",
"y  c #776E61",
"u  c #6D706C",
"i  c #7E7972",
"p  c #737169",
"a  c #9E1B1F",
"s  c #BB191F",
"d  c #A51B1E",
"f  c #951E21",
"g  c #A71C21",
"h  c #B51C22",
"j  c #862825",
"k  c #972927",
"l  c #99322E",
"z  c #8C3831",
"x  c #983331",
"c  c #8C362F",
"v  c #A22B2A",
"b  c #AB2224",
"n  c #B52224",
"m  c #B82528",
"M  c #A43733",
"N  c #B73634",
"B  c #A52C30",
"V  c #D21A1F",
"C  c #C31C21",
"Z  c #CC1D22",
"A  c #D21C22",
"S  c #DB1E21",
"D  c #EC1E24",
"F  c #E51E23",
"G  c #FD1F25",
"H  c #F71E26",
"J  c #C82629",
"K  c #D22A2B",
"L  c #D92428",
"P  c #D72A31",
"I  c #C53432",
"U  c #EE2026",
"Y  c #E72329",
"T  c #FD2026",
"R  c #F52229",
"E  c #FD2129",
"W  c #F42026",
"Q  c #904737",
"!  c #AC483D",
"~  c #85663B",
"^  c #966F3D",
"/  c #C63942",
"(  c #8B4A4E",
")  c #BA5B56",
"_  c #A9504E",
"`  c #85684C",
"'  c #8C7848",
"]  c #977646",
"[  c #866A5A",
"{  c #8E7159",
"}  c #A47C45",
"|  c #AC6C5C",
" . c #887766",
".. c #957967",
"X. c #8C7D76",
"o. c #927E7B",
"O. c #8A6260",
"+. c #A87B6A",
"@. c #B87469",
"#. c #C3554E",
"$. c #C27C73",
"%. c #7E8F3F",
"&. c #788A48",
"*. c #7E9353",
"=. c #7B924D",
"-. c #7E847A",
";. c #829C47",
":. c #86895C",
">. c #968856",
",. c #9A8F56",
"<. c #B88A4D",
"1. c #A58753",
"2. c #A3955B",
"3. c #A79659",
"4. c #B18D52",
"5. c #87A74D",
"6. c #8BAC50",
"7. c #ADA25C",
"8. c #B4A55F",
"9. c #958967",
"0. c #8A837D",
"q. c #8E8877",
"w. c #978B79",
"e. c #939070",
"r. c #A59D62",
"t. c #A9996A",
"y. c #B39D61",
"u. c #AA8877",
"i. c #B98977",
"p. c #A59879",
"a. c #B38B70",
"s. c #BCAD69",
"d. c #B7A863",
"f. c #BEB26A",
"g. c #B8AD78",
"h. c #C49C5D",
"j. c #C48F4F",
"k. c #D2977D",
"l. c #C2AA63",
"z. c #C4B46A",
"x. c #C9BA6C",
"c. c #C5BA6D",
"v. c #CABA73",
"b. c #D8B368",
"n. c #CDC377",
"m. c #D7C978",
"M. c #DED07A",
"N. c #E3D57B",
"B. c #EAD97C",
"V. c #878886",
"C. c #968A86",
"Z. c #9B9586",
"A. c #8C999B",
"S. c #A89785",
"D. c #B69687",
"F. c #AB9A99",
"G. c #BD8D82",
"H. c #99A199",
"J. c #A8A388",
"K. c #B4A689",
"L. c #A7A393",
"P. c #B7A898",
"I. c #B5B199",
"U. c #96A4A7",
"Y. c #8EA1A6",
"T. c #ABA7A3",
"R. c #B7B5A9",
"E. c #A9B4B3",
"W. c #B7B7B5",
"Q. c #B3AFA4",
"!. c #C59987",
"~. c #D99D84",
"^. c #C18A83",
"/. c #C8A08C",
"(. c #CDAA9B",
"). c #C8A497",
"_. c #D3AC9C",
"`. c #D2AC96",
"'. c #C9B69E",
"]. c #CEB196",
"[. c #F2A78C",
"{. c #C5AAAD",
"}. c #C9BCA6",
"|. c #D6B7A7",
" X c #C6B6B4",
".X c #E1BFAC",
"XX c #EADD81",
"oX c #F2DA82",
"OX c #F3E585",
"+X c #FCED8B",
"@X c #F7E788",
"#X c #FFF08B",
"$X c #EFE182",
"%X c #C8C4BA",
"&X c #D9C9B9",
"*X c #D8C8B0",
"=X c #FDD5BB",
"-X c #ECCAB3",
";X c #D4C397",
":X c #A8BCC0",
">X c #C6BBC2",
",X c #BBCBD2",
"<X c #BDCBCE",
"1X c #C5C7C7",
"2X c #D4CCC6",
"3X c #DAD2C7",
"4X c #C8D5D8",
"5X c #D7D7D7",
"6X c #E7D9C9",
"7X c #F9DEC6",
"8X c #E4DCD2",
"9X c #E4DDD7",
"0X c #EBE5D9",
"qX c #FCEFDA",
"wX c #F9EAD5",
"eX c #FEF2DB",
"rX c #F9E9CE",
"tX c #DBDCE1",
"yX c #DAE2E4",
"uX c #E3E9EA",
"iX c #E8E8E6",
"pX c #F3EDE5",
"aX c #F4F3EA",
"sX c #FBF2E7",
"dX c #ECF2F4",
"fX c #F3F5F4",
"gX c #FBF9F5",
"hX c #FFFFFF",
"jX c #F3F8F9",
"kX c #EBEEF1",
/* pixels */
"                                                                                                    ",
"                                                                                                    ",
"                                                            M I P L L I                             ",
"                                                      M K Y R G T G T T K                           ",
"                                                  x K W G T G T G T T T T K                         ",
"                                                m U G G G G G T G T G G T R I                       ",
"                                            { K E G G G G G G H U G G T T T R N                     ",
"                            ,.1.>.        2X$.H T T G G T G D C h C A U R T T Y                     ",
"                        d.M.XXn.2.>.q y 2XhX@.D G T G G G F g g s s a a n L E E N                   ",
"                      s.n.g.r.2.d.x.>.T.hXhX(.K G G G G G Z s Z A C g m $ @ v L J                   ",
"                    2.r.2.>.8.M.f.2.>.5XhXhXaX| D G G G D V A A Z g h A k . . & v ..p.              ",
"                  q w d.3.N.B.2.' r.:.5XhXhXhX3X! D T T U A A A h h Z Z J + . .._.0XpXP.            ",
"                  , ' y.d.c.r.z.B.3.y.%XhXhXhXhX&X_ L G D A A A Z A J Z Z j 5 |.gXhXhX0X            ",
"                  ~ ~ y.@X7.w XX@Xs.B.g.uXhXhXhXhX0X@.N S A A A A A A C l    .9XhXhXhXfXL.          ",
"                  } ~ ] >.>.8.m.N.x.+XN.I.fXhXhXhXhXgX&Xi.! k b b n b z 9     5XhXhXhXiX            ",
"                  ] ^ j.2 y.x.z.x.M.+X+Xm.R.hXhXhXhXhXhXhX0X!.+.| | +.!.u.    H.uXhXdXE.            ",
"                  2 ] ' 1 l.x.x.2.OX+X+X+Xr.W.hXhXhXhXhXhXhXpX*X_._._._.D.        E.Y.              ",
"                  ; ~ ^ ~ h.s.N.3.@X+X#X@Xd.z.Q.uXhXhXhXhXhXhXgX6X-X|._./.                          ",
"                    } ^ } 4.l.n.z.+X+X+X@Xd.OXv.p.Q.5XfXhXhXhXhXhXhXgXsX3X                          ",
"                    ` ~ <.} b.2.f.+X+X+XOX7.f.w l.>.[ J.H.1X4XyXuXuX5XW.-.                          ",
"                      ; 1.} <.4.s.#X+X+X$X2.t.9.v.g.t.s.>.s.9. .q.e r >.;                           ",
"                  c l * ~ <.] 4.z.#X+X+XB.t u e  .3Xp.'.;Xt.}.e 0 o > ,.3.                          ",
"              c n C Z b 1 ' 2 1 z.#X+X#XN.q X X o 6 Z.qXrX7XI.X X : [ v.XX                          ",
"              n A Z Z d & , ` 1 s.#X+X#Xm.Z.&.%.3 q *XqXqXeX*X4 ;.*.w.m.OX                          ",
"              k Z Z A V j ..a.` d.+X+X#Xn.Z.=.6.5.p.sXqXeXeX}.&.6.;. .v.OX                          ",
"              = n A Z A k ..~.a.3.@X+X@Xv.L.&.6.;.Z.qXeXeXeX*X&.6.*.P.t.XX                          ",
"                * J A Z f 8 k.{ ] oX+Xc.s.%X:.5.&. XsXeXeXeXwX9.=.:.0XK.z.                          ",
"                  k Z a d -  .a.] b.+X7.>.6X].' 9.0X8X&X&X&X3X*Xt.`.7XS.1.                          ",
"                    * % c & % 8 ` h.@X8.r 6X=X-X=X-X/.~.k.k.i.6X7X=X'.{ 1.                          ",
"                          z Z h j } v.v.w.6X7X=X=X|.~.[.[.[.!.6X&XS.` <.]                           ",
"                          x Z A C Q 9 9.0.C.P.).|.P.k.[.~.+.[ [ 7 o q 1.                            ",
"                          l L A A g ( 0.( n m b B - $ = = % j j *     q                             ",
"                          x J b k j 7 ..M J S F J & @ + % k #                                       ",
"                          # =        XaX6X(.i.| , 3 4 : 3 , K.I.                                    ",
"                                    1XfXhXhXhXgXw.: : : : e iXaXL.                                  ",
"                ..9... .              V.F.>XtXkXR.: r R.w.i yX4XH.                                  ",
"            K.3X0XpXpX0X8X}.9.        l Y P / _ _ * o.W.Q.r ( 7                                     ",
"        S.3XgXhXhXhXhXhXhXhX0XS.    v J T T G Z F D ) iXgX(.K L M                                   ",
"      F.pXhXhXhXhXhXhXhXhXhXhXaXp.J J F U Y Y Z Z G / tXhXpX) R R K M                               ",
"    C.iXhXhXhXhXhXhXhXhXhXhXhXhXpX_ v #.$.!.!.i.! U P 2XhXhX).L T T U N                             ",
"    W.hXhXhXhXhXhXhXhXhXhXhXgX3XuX'.S.pXgXgXjXgX8X#.K  XhXhX8XI T T T E I                           ",
"    5XhXhXhXhXhXhXhXhXhXhXhXhXaX%X%XT.9X XF.C.F. XG.K {.hXhXfX) D D Y K N u.J.                      ",
"    9XhXhXhXhXhXhXhXhXhXhXhXhXhXaXF.y X.5 ; 5 i I...x {.hXhXhXD.@.^.(.&X9XgX0X                      ",
"    5XhXhXhXhXhXhXhXhXhXhXhXhXhXhX8Xw.%X . . X3X2X8XZ.iXhXhXhXgXgXhXhXhXhXhXhX%X                    ",
"    1XhXhXhXhXhXhXhXhXhXhXhXhXhXfX1XX.T.X... . XtX1XT.kXhXhXhXhXhXhXhXhXhXfXyXE.                    ",
"    U.gXhXhXhXhXhXhXhXhXhXhXhXgX5XP.u.G. .i.!.u.C.1X5XfXjXjXdXyXyX4X<X:XU.A.                        ",
"      1XhXhXhXhXhXhXhXhXhXhXhXhX8XD.).(.!.(.(.`.q.A.U.Y.Y.V. .u                                     ",
"      u W.kXhXhXhXhXhXhXhXhXhX9X|._._.(.(.(.(.D.y           <                                       ",
"        0 C.W.1X4X4X4X,X,X,XE.Z.C.C.C.V.o.o.0.p                                                     ",
"                                                                                                    "
};
