/* XPM */
static char *result[] = {
/* columns rows colors chars-per-pixel */
"50 50 52 1 ",
"  c #424A5A",
". c #5B5B5B",
"X c #6A6A6A",
"o c #6C6C6C",
"O c gray45",
"+ c #747474",
"@ c gray47",
"# c #797979",
"$ c gray50",
"% c #7F7F80",
"& c #747C88",
"* c #63799A",
"= c #7793BB",
"- c #808080",
"; c gray52",
": c gray69",
"> c #B1B1B1",
", c #B2B2B2",
"< c gray70",
"1 c #B4B4B4",
"2 c gray71",
"3 c #B6B6B6",
"4 c gray72",
"5 c gray73",
"6 c #BBBBBB",
"7 c #BCBCBC",
"8 c gray74",
"9 c gray",
"0 c gray75",
"q c #96B5D9",
"w c #A9B4C4",
"e c #C0C0C0",
"r c #C1C1C1",
"t c gray76",
"y c #C3C3C3",
"u c gray77",
"i c #C5C5C5",
"p c #C6C6C6",
"a c #C7C6C6",
"s c gray78",
"d c #C8C7C7",
"f c #C8C8C8",
"g c gray79",
"h c #CACACA",
"j c #CBCBCB",
"k c gray80",
"l c #CDCDCD",
"z c gray81",
"x c #CFCFD0",
"c c #D0D0D0",
"v c gray82",
"b c #E2E7F0",
/* pixels */
"><231,268etiiutretisgffut980rusfpi09999ttupffhflxX",
",ooooooooooooooooooooooooooooooooooooooooooooooodX",
":.bbbbbbbbbbbww bbbbbbbbbbbbbbbbbbbbbbbbbbbbbbb&dO",
"4.b==========ww bb=============================&d#",
"i.b=qqq===qq=ww bb=qqqq===qqq=====q=====q======&d@",
"p.b=qqq===qq=ww bb=qqqq===qqq=====q=====q======&d+",
"p.b=qq=======ww bb=qq=======================**=&dO",
"i.b==========ww bb=============================&dO",
"r.b==========ww bb=============================&dO",
"y.b=qq====**=ww bb==========================**=&dO",
"p.b==========ww bb=qq=======================**=&dO",
"h.b==========ww bb=qq=======================**=&dO",
"k.b===*===**=ww bb=============*===*****===***=&dO",
"l.b==========ww bb=============================&dO",
"l.b==========ww bb=============================&dO",
"k.wwwwwwwwwwwww wwwwwwwwwwwwwwwwwwwwwwwwwwwwwww&dO",
"j.                                              dO",
"j.                                              dO",
"h.bbbbbbbbbbbbbbbbbbbbbbbbbbbbbbbbw  bbbbbbbbbb&dO",
"h.b===============================w  b=========&dO",
"h.b===============================w  b=========&dO",
"j.b===qqq=qqqqq=qq=qqq===q===qq===w  b===qqqqq=&dO",
"l.b===q===========================w  b===qq====&dO",
"z.b============================*==w  b=========&dO",
"z.b============================*==w  b=========&dO",
"z.b===q===========================w  b======**=&dO",
"c.b============================*==w  b===qq====&dO",
"c.b============================*==w  b===qq====&dO",
"v.b===q=========**====***===****==w  b======**=&dO",
"v.b===============================w  b=========&dO",
"v.b===============================w  b=========&dO",
"c.wwwwwwwwwwwwwwwwwwwwwwwwwwwwwwwww  wwwwwwwwww&dO",
"j.                                              dO",
"p.                                              dO",
"t.bbbbbbbbbbbbbbbbbbbw bbbbbbbbbbbbbbbbbbbbbbbb&dO",
"e.b==================w bb======================&dO",
"7.b==================w bb======================&dO",
"5.b===qqq=qqq==q=====w bb=qqqqq=qqq===qq===q===&d#",
"1.b===q===========*==w bb=qq================**=&d#",
"<.b===q===========*==w bb=qq================**=&d#",
"1.b==================w bb======================&d#",
"3.b===q===========*==w bb=qq================**=&d#",
"4.b===q===========*==w bb=qq================**=&d#",
"5.b======*=====****==w bb=======**===*=====***=&d#",
"7.b==================w bb======================&d#",
"r.b==================w bb======================&d#",
"u.wwwwwwwwwwwwwwwwwwww wwwwwwwwwwwwwwwwwwwwwwww&d#",
"a.                                              d#",
"p888888888888888888888888888888888888888888888888#",
";;;;;;;;;;;;---------------------------------$$%%%"
};
